<mxfile host="Electron" modified="2023-10-31T12:40:58.935Z" agent="Mozilla/5.0 (X11; Linux x86_64) AppleWebKit/537.36 (KHTML, like Gecko) draw.io/22.0.3 Chrome/114.0.5735.289 Electron/25.8.4 Safari/537.36" etag="i_lAj2jsTcnR8Tul4tGM" version="22.0.3" type="device">
  <diagram name="Seite-1" id="7e6cTuBCbMOd3I6JdsOL">
    <mxGraphModel dx="989" dy="576" grid="1" gridSize="10" guides="1" tooltips="1" connect="1" arrows="1" fold="1" page="1" pageScale="1" pageWidth="827" pageHeight="1169" math="0" shadow="0">
      <root>
        <mxCell id="0" />
        <mxCell id="1" parent="0" />
        <mxCell id="huaGEpTdvwJnEIqbGufg-1" value="Bürogebäude" style="rounded=1;arcSize=10;whiteSpace=wrap;html=1;align=center;fillColor=#ffe6cc;strokeColor=#d79b00;" vertex="1" parent="1">
          <mxGeometry x="700" y="360" width="100" height="40" as="geometry" />
        </mxCell>
        <mxCell id="huaGEpTdvwJnEIqbGufg-9" value="n" style="rounded=0;orthogonalLoop=1;jettySize=auto;html=1;endArrow=none;endFill=0;" edge="1" parent="1" source="huaGEpTdvwJnEIqbGufg-2" target="huaGEpTdvwJnEIqbGufg-8">
          <mxGeometry relative="1" as="geometry" />
        </mxCell>
        <mxCell id="huaGEpTdvwJnEIqbGufg-28" value="n" style="edgeStyle=none;shape=connector;rounded=0;orthogonalLoop=1;jettySize=auto;html=1;labelBackgroundColor=default;strokeColor=default;align=center;verticalAlign=middle;fontFamily=Helvetica;fontSize=11;fontColor=default;endArrow=none;endFill=0;" edge="1" parent="1" source="huaGEpTdvwJnEIqbGufg-2" target="huaGEpTdvwJnEIqbGufg-27">
          <mxGeometry relative="1" as="geometry" />
        </mxCell>
        <mxCell id="huaGEpTdvwJnEIqbGufg-2" value="Mitarbeitende" style="rounded=1;arcSize=10;whiteSpace=wrap;html=1;align=center;fillColor=#ffe6cc;strokeColor=#d79b00;" vertex="1" parent="1">
          <mxGeometry x="230" y="280" width="100" height="40" as="geometry" />
        </mxCell>
        <mxCell id="huaGEpTdvwJnEIqbGufg-25" style="edgeStyle=none;shape=connector;rounded=0;orthogonalLoop=1;jettySize=auto;html=1;labelBackgroundColor=default;strokeColor=default;align=center;verticalAlign=middle;fontFamily=Helvetica;fontSize=11;fontColor=default;endArrow=none;endFill=0;" edge="1" parent="1" source="huaGEpTdvwJnEIqbGufg-3" target="huaGEpTdvwJnEIqbGufg-2">
          <mxGeometry relative="1" as="geometry" />
        </mxCell>
        <mxCell id="huaGEpTdvwJnEIqbGufg-3" value="Personalnummer" style="ellipse;whiteSpace=wrap;html=1;align=center;fillColor=#fff2cc;strokeColor=#d6b656;" vertex="1" parent="1">
          <mxGeometry x="80" y="280" width="120" height="40" as="geometry" />
        </mxCell>
        <mxCell id="huaGEpTdvwJnEIqbGufg-26" style="edgeStyle=none;shape=connector;rounded=0;orthogonalLoop=1;jettySize=auto;html=1;labelBackgroundColor=default;strokeColor=default;align=center;verticalAlign=middle;fontFamily=Helvetica;fontSize=11;fontColor=default;endArrow=none;endFill=0;" edge="1" parent="1" source="huaGEpTdvwJnEIqbGufg-4" target="huaGEpTdvwJnEIqbGufg-2">
          <mxGeometry relative="1" as="geometry" />
        </mxCell>
        <mxCell id="huaGEpTdvwJnEIqbGufg-4" value="Name" style="ellipse;whiteSpace=wrap;html=1;align=center;fillColor=#fff2cc;strokeColor=#d6b656;" vertex="1" parent="1">
          <mxGeometry x="100" y="220" width="100" height="40" as="geometry" />
        </mxCell>
        <mxCell id="huaGEpTdvwJnEIqbGufg-6" value="Raum" style="rounded=1;arcSize=10;whiteSpace=wrap;html=1;align=center;fillColor=#ffe6cc;strokeColor=#d79b00;" vertex="1" parent="1">
          <mxGeometry x="560" y="280" width="100" height="40" as="geometry" />
        </mxCell>
        <mxCell id="huaGEpTdvwJnEIqbGufg-15" style="rounded=0;orthogonalLoop=1;jettySize=auto;html=1;endArrow=none;endFill=0;" edge="1" parent="1" source="huaGEpTdvwJnEIqbGufg-7" target="huaGEpTdvwJnEIqbGufg-6">
          <mxGeometry relative="1" as="geometry" />
        </mxCell>
        <mxCell id="huaGEpTdvwJnEIqbGufg-7" value="&lt;u&gt;ZimmerNr.&lt;/u&gt;" style="ellipse;whiteSpace=wrap;html=1;align=center;fillColor=#fff2cc;strokeColor=#d6b656;" vertex="1" parent="1">
          <mxGeometry x="630" y="210" width="100" height="40" as="geometry" />
        </mxCell>
        <mxCell id="huaGEpTdvwJnEIqbGufg-10" value="1" style="rounded=0;orthogonalLoop=1;jettySize=auto;html=1;endArrow=none;endFill=0;" edge="1" parent="1" source="huaGEpTdvwJnEIqbGufg-8" target="huaGEpTdvwJnEIqbGufg-6">
          <mxGeometry relative="1" as="geometry" />
        </mxCell>
        <mxCell id="huaGEpTdvwJnEIqbGufg-12" style="rounded=0;orthogonalLoop=1;jettySize=auto;html=1;endArrow=none;endFill=0;" edge="1" parent="1" source="huaGEpTdvwJnEIqbGufg-8" target="huaGEpTdvwJnEIqbGufg-11">
          <mxGeometry relative="1" as="geometry" />
        </mxCell>
        <mxCell id="huaGEpTdvwJnEIqbGufg-14" style="rounded=0;orthogonalLoop=1;jettySize=auto;html=1;endArrow=none;endFill=0;" edge="1" parent="1" source="huaGEpTdvwJnEIqbGufg-8" target="huaGEpTdvwJnEIqbGufg-13">
          <mxGeometry relative="1" as="geometry" />
        </mxCell>
        <mxCell id="huaGEpTdvwJnEIqbGufg-8" value="sitzt in, auf, seit" style="shape=rhombus;perimeter=rhombusPerimeter;whiteSpace=wrap;html=1;align=center;fillColor=#d5e8d4;strokeColor=#82b366;" vertex="1" parent="1">
          <mxGeometry x="384" y="270" width="120" height="60" as="geometry" />
        </mxCell>
        <mxCell id="huaGEpTdvwJnEIqbGufg-11" value="Platz" style="ellipse;whiteSpace=wrap;html=1;align=center;fillColor=#fff2cc;strokeColor=#d6b656;" vertex="1" parent="1">
          <mxGeometry x="330" y="210" width="100" height="40" as="geometry" />
        </mxCell>
        <mxCell id="huaGEpTdvwJnEIqbGufg-13" value="Zeitpunkt" style="ellipse;whiteSpace=wrap;html=1;align=center;fillColor=#fff2cc;strokeColor=#d6b656;" vertex="1" parent="1">
          <mxGeometry x="470" y="210" width="100" height="40" as="geometry" />
        </mxCell>
        <mxCell id="huaGEpTdvwJnEIqbGufg-20" value="n" style="rounded=0;orthogonalLoop=1;jettySize=auto;html=1;endArrow=none;endFill=0;" edge="1" parent="1" source="huaGEpTdvwJnEIqbGufg-16" target="huaGEpTdvwJnEIqbGufg-19">
          <mxGeometry relative="1" as="geometry" />
        </mxCell>
        <mxCell id="huaGEpTdvwJnEIqbGufg-16" value="Telefon" style="rounded=1;arcSize=10;whiteSpace=wrap;html=1;align=center;fillColor=#ffe6cc;strokeColor=#d79b00;" vertex="1" parent="1">
          <mxGeometry x="394" y="400" width="100" height="40" as="geometry" />
        </mxCell>
        <mxCell id="huaGEpTdvwJnEIqbGufg-18" style="rounded=0;orthogonalLoop=1;jettySize=auto;html=1;endArrow=none;endFill=0;" edge="1" parent="1" source="huaGEpTdvwJnEIqbGufg-17" target="huaGEpTdvwJnEIqbGufg-16">
          <mxGeometry relative="1" as="geometry" />
        </mxCell>
        <mxCell id="huaGEpTdvwJnEIqbGufg-17" value="&lt;u&gt;Tel.-Nr.&lt;/u&gt;" style="ellipse;whiteSpace=wrap;html=1;align=center;fillColor=#fff2cc;strokeColor=#d6b656;" vertex="1" parent="1">
          <mxGeometry x="394" y="470" width="100" height="40" as="geometry" />
        </mxCell>
        <mxCell id="huaGEpTdvwJnEIqbGufg-21" value="1" style="rounded=0;orthogonalLoop=1;jettySize=auto;html=1;endArrow=none;endFill=0;" edge="1" parent="1" source="huaGEpTdvwJnEIqbGufg-19" target="huaGEpTdvwJnEIqbGufg-6">
          <mxGeometry relative="1" as="geometry" />
        </mxCell>
        <mxCell id="huaGEpTdvwJnEIqbGufg-19" value="aufgestellt in" style="shape=rhombus;perimeter=rhombusPerimeter;whiteSpace=wrap;html=1;align=center;fillColor=#d5e8d4;strokeColor=#82b366;" vertex="1" parent="1">
          <mxGeometry x="549" y="390" width="120" height="60" as="geometry" />
        </mxCell>
        <mxCell id="huaGEpTdvwJnEIqbGufg-23" value="1" style="rounded=0;orthogonalLoop=1;jettySize=auto;html=1;endArrow=none;endFill=0;" edge="1" parent="1" source="huaGEpTdvwJnEIqbGufg-22" target="huaGEpTdvwJnEIqbGufg-1">
          <mxGeometry relative="1" as="geometry" />
        </mxCell>
        <mxCell id="huaGEpTdvwJnEIqbGufg-24" value="n" style="edgeStyle=none;shape=connector;rounded=0;orthogonalLoop=1;jettySize=auto;html=1;labelBackgroundColor=default;strokeColor=default;align=center;verticalAlign=middle;fontFamily=Helvetica;fontSize=11;fontColor=default;endArrow=none;endFill=0;" edge="1" parent="1" source="huaGEpTdvwJnEIqbGufg-22" target="huaGEpTdvwJnEIqbGufg-6">
          <mxGeometry relative="1" as="geometry" />
        </mxCell>
        <mxCell id="huaGEpTdvwJnEIqbGufg-22" value="befindet sich in" style="shape=rhombus;perimeter=rhombusPerimeter;whiteSpace=wrap;html=1;align=center;fillColor=#d5e8d4;strokeColor=#82b366;" vertex="1" parent="1">
          <mxGeometry x="690" y="270" width="120" height="60" as="geometry" />
        </mxCell>
        <mxCell id="huaGEpTdvwJnEIqbGufg-29" value="1" style="edgeStyle=none;shape=connector;rounded=0;orthogonalLoop=1;jettySize=auto;html=1;labelBackgroundColor=default;strokeColor=default;align=center;verticalAlign=middle;fontFamily=Helvetica;fontSize=11;fontColor=default;endArrow=none;endFill=0;" edge="1" parent="1" source="huaGEpTdvwJnEIqbGufg-27" target="huaGEpTdvwJnEIqbGufg-16">
          <mxGeometry relative="1" as="geometry" />
        </mxCell>
        <mxCell id="huaGEpTdvwJnEIqbGufg-27" value="erreichbar über" style="shape=rhombus;perimeter=rhombusPerimeter;whiteSpace=wrap;html=1;align=center;fillColor=#d5e8d4;strokeColor=#82b366;" vertex="1" parent="1">
          <mxGeometry x="219" y="390" width="120" height="60" as="geometry" />
        </mxCell>
        <mxCell id="huaGEpTdvwJnEIqbGufg-30" value="" style="shape=mxgraph.signs.people.construction;html=1;pointerEvents=1;fillColor=#000000;strokeColor=none;verticalLabelPosition=bottom;verticalAlign=top;align=center;sketch=0;fontFamily=Helvetica;fontSize=11;fontColor=default;" vertex="1" parent="1">
          <mxGeometry x="290" y="260" width="26.66" height="30" as="geometry" />
        </mxCell>
        <mxCell id="huaGEpTdvwJnEIqbGufg-31" value="" style="shape=mxgraph.signs.safety.caution;html=1;pointerEvents=1;fillColor=#000000;strokeColor=none;verticalLabelPosition=bottom;verticalAlign=top;align=center;sketch=0;fontFamily=Helvetica;fontSize=11;fontColor=default;" vertex="1" parent="1">
          <mxGeometry x="760" y="330" width="30" height="30" as="geometry" />
        </mxCell>
        <mxCell id="huaGEpTdvwJnEIqbGufg-33" value="" style="shape=mxgraph.signs.tech.telephone_1;html=1;pointerEvents=1;fillColor=#000000;strokeColor=none;verticalLabelPosition=bottom;verticalAlign=top;align=center;sketch=0;fontFamily=Helvetica;fontSize=11;fontColor=default;" vertex="1" parent="1">
          <mxGeometry x="470" y="407.5" width="10.5" height="25" as="geometry" />
        </mxCell>
        <mxCell id="huaGEpTdvwJnEIqbGufg-34" value="" style="shape=mxgraph.signs.healthcare.wheelchair_accessible_1;html=1;pointerEvents=1;fillColor=#000000;strokeColor=none;verticalLabelPosition=bottom;verticalAlign=top;align=center;sketch=0;fontFamily=Helvetica;fontSize=11;fontColor=default;" vertex="1" parent="1">
          <mxGeometry x="412.42" y="230" width="17.58" height="20" as="geometry" />
        </mxCell>
        <mxCell id="huaGEpTdvwJnEIqbGufg-35" value="" style="html=1;verticalLabelPosition=bottom;align=center;labelBackgroundColor=#ffffff;verticalAlign=top;strokeWidth=2;strokeColor=#000000;shadow=0;dashed=0;shape=mxgraph.ios7.icons.alarm_clock;fontFamily=Helvetica;fontSize=11;fontColor=default;fillColor=none;" vertex="1" parent="1">
          <mxGeometry x="549" y="200" width="18" height="20" as="geometry" />
        </mxCell>
      </root>
    </mxGraphModel>
  </diagram>
</mxfile>
